<?xml version="1.0" encoding="UTF-8"?>
<svg width="332px" height="87px" viewBox="0 0 332 87" version="1.1" xmlns="http://www.w3.org/2000/svg" xmlns:xlink="http://www.w3.org/1999/xlink">
    <title>Group</title>
    <g id="Page-1" stroke="none" stroke-width="1" fill="none" fill-rule="evenodd">
        <g id="Group" fill-rule="nonzero">
            <path d="M86.001922,55.28054 L86.001922,27.00514 C86.001922,23.93094 87.584322,22.36624 90.822722,22.36624 L106.702422,22.36624 C108.523422,22.36624 109.774422,23.59964 109.774422,25.36684 C109.774422,27.15244 108.523422,28.33054 106.702422,28.33054 L93.233122,28.33054 L93.233122,38.52884 L105.340422,38.52884 C107.217422,38.52884 108.413422,39.68864 108.413422,41.45584 C108.413422,43.22304 107.180422,44.38274 105.340422,44.38274 L93.233122,44.38274 L93.233122,55.28054 C93.233122,57.76564 91.945122,59.1833125 89.681922,59.1833125 C87.363522,59.20154 86.001922,57.74724 86.001922,55.28054 Z" id="Path" fill="#4E4072"></path>
            <path d="M113.087422,42.91004 C113.087422,35.14174 118.221422,29.89534 125.857422,29.89534 C133.088422,29.89534 138.203422,35.03124 138.203422,42.04484 C138.203422,45.22954 137.302422,46.27884 134.652422,46.27884 L120.282422,46.27884 L120.282422,47.51214 C120.300422,51.46994 122.821422,54.01034 127.035422,54.01034 C129.224422,54.01034 130.788422,53.47654 132.039422,52.42724 C133.401422,51.37794 133.879422,50.97294 134.983422,50.97294 C136.455422,50.97294 137.467422,51.98544 137.467422,53.55014 C137.467422,54.80194 136.695422,56.01684 135.351422,56.97414 C133.475422,58.55724 130.236422,59.51444 126.575422,59.51444 C118.258422,59.51444 113.106422,54.61784 113.106422,46.55494 L113.106422,42.91004 L113.087422,42.91004 Z M131.451422,41.82394 L131.451422,41.76874 C131.451422,37.88454 129.316422,35.36264 125.967422,35.36264 C122.490422,35.36264 120.263422,37.93974 120.263422,41.76874 L120.263422,41.82394 L131.451422,41.82394 Z" id="Shape" fill="#4E4072"></path>
            <path d="M144.164422,55.31734 L144.164422,24.15184 C144.164422,21.57464 145.507422,20.24924 147.696422,20.24924 C149.868422,20.24924 151.229422,21.59314 151.229422,24.15184 L151.229422,55.31734 C151.229422,57.89454 149.868422,59.20154 147.696422,59.20154 C145.488422,59.20154 144.164422,57.89454 144.164422,55.31734 Z" id="Path" fill="#4E4072"></path>
            <path d="M162.195422,19.62344 C164.532422,19.62344 166.207422,21.16974 166.207422,23.32344 C166.207422,25.45884 164.514422,27.04204 162.195422,27.04204 C159.914422,27.04204 158.203422,25.45884 158.203422,23.32344 C158.203422,21.16974 159.914422,19.62344 162.195422,19.62344 Z M162.195422,59.20154 C160.024422,59.20154 158.681422,57.85774 158.681422,55.31734 L158.681422,34.16604 C158.681422,31.58884 160.024422,30.26344 162.214422,30.26344 C164.385422,30.26344 165.728422,31.60724 165.728422,34.16604 L165.728422,55.31734 C165.728422,57.89454 164.385422,59.20154 162.195422,59.20154 Z" id="Shape" fill="#4E4072"></path>
            <path d="M174.339422,50.60484 C175.240422,50.60484 175.940422,50.97294 177.172422,51.94864 C179.233422,53.58694 181.073422,54.32334 183.410422,54.32334 C186.336422,54.32334 188.121422,53.08994 188.121422,51.10184 C188.121422,49.46344 186.869422,48.26694 184.275422,47.69624 L179.785422,46.68384 C174.504422,45.52404 172.057422,42.96524 172.057422,38.74974 C172.057422,33.39294 176.547422,29.89534 183.576422,29.89534 C186.281422,29.89534 188.857422,30.48434 190.881422,31.58884 C192.923422,32.69334 194.119422,34.25814 194.119422,35.89644 C194.119422,37.42434 193.052422,38.36314 191.451422,38.36314 C190.623422,38.36314 189.869422,38.08704 188.562422,37.16664 C186.520422,35.62034 185.085422,35.08644 183.208422,35.08644 C180.503422,35.08644 178.865422,36.37504 178.865422,38.34474 C178.865422,39.98314 179.969422,40.94034 182.398422,41.51104 L187.513422,42.61554 C192.573422,43.73844 194.947422,46.27884 194.947422,50.51274 C194.947422,56.10894 190.476422,59.56974 183.060422,59.56974 C179.951422,59.56974 177.136422,58.92544 175.038422,57.80244 C172.867422,56.64274 171.689198,55.04124 171.689198,53.25564 C171.671422,51.65404 172.738422,50.60484 174.339422,50.60484 Z" id="Path" fill="#4E4072"></path>
            <path d="M204.240422,59.20154 C202.105422,59.20154 200.836422,57.74724 200.836422,55.37254 L200.836422,26.47134 C200.836422,23.59964 202.087422,22.10854 204.552422,22.10854 C206.300422,22.10854 207.312422,23.10254 208.803422,25.33004 L222.824422,46.70224 L223.118422,46.70224 L223.118422,25.93744 C223.118422,23.52594 224.351422,22.10854 226.485422,22.10854 C228.620422,22.10854 229.908422,23.56284 229.908422,25.93744 L229.908422,54.98604 C229.908422,57.71044 228.675422,59.18314 226.375422,59.18314 C224.627422,59.18314 223.615422,58.46524 222.032422,56.07214 L207.864422,34.46064 L207.570422,34.46064 L207.570422,55.35414 C207.607422,57.78404 206.374422,59.20154 204.240422,59.20154 Z" id="Path" fill="#4E4072"></path>
            <path d="M262.311422,42.96524 L262.311422,46.31564 C262.311422,54.74664 256.956422,59.55124 249.228422,59.55124 C241.463422,59.55124 236.109422,54.76514 236.109422,46.35244 L236.109422,43.00214 C236.109422,34.81034 241.463422,29.9136885 249.228422,29.9136885 C256.956422,29.89534 262.311422,34.81034 262.311422,42.96524 Z M243.359422,43.13094 L243.359422,46.29724 C243.359422,51.13864 245.603422,54.06554 249.228422,54.06554 C252.890422,54.06554 255.061422,51.13864 255.061422,46.29724 L255.061422,43.13094 C255.061422,38.34474 252.890422,35.39944 249.228422,35.39944 C245.622422,35.39944 243.359422,38.34474 243.359422,43.13094 Z" id="Shape" fill="#4E4072"></path>
            <path d="M265.844422,35.54674 C265.605422,34.84714 265.476422,34.25814 265.476422,33.66904 C265.476422,31.73614 266.948422,30.31874 269.009422,30.31874 C270.941422,30.31874 272.137422,31.44164 272.652422,33.66904 L277.675422,52.62974 L277.970422,52.62974 L283.490422,33.70584 C284.079422,31.40484 285.238422,30.33714 287.041422,30.33714 C289.028422,30.33714 290.445422,31.73614 290.445422,33.65064 C290.445422,34.22124 290.335422,34.81034 290.040422,35.58354 L283.803422,52.90584 C281.981422,58.04184 280.859422,59.20154 277.859422,59.20154 C274.639422,59.20154 273.499422,58.02344 271.787422,52.90584 L265.844422,35.54674 Z" id="Path" fill="#4E4072"></path>
            <path d="M293.591422,42.91004 C293.591422,35.14174 298.725422,29.89534 306.361422,29.89534 C313.592422,29.89534 318.707422,35.03124 318.707422,42.04484 C318.707422,45.22954 317.806422,46.27884 315.156422,46.27884 L300.786422,46.27884 L300.786422,47.51214 C300.804422,51.46994 303.325422,54.01034 307.539422,54.01034 C309.728422,54.01034 311.292422,53.47654 312.543422,52.42724 C313.905422,51.37794 314.383422,50.97294 315.487422,50.97294 C316.959422,50.97294 317.971422,51.98544 317.971422,53.55014 C317.971422,54.80194 317.199422,56.01684 315.855422,56.97414 C313.979422,58.55724 310.740422,59.51444 307.079422,59.51444 C298.762422,59.51444 293.610422,54.61784 293.610422,46.55494 L293.610422,42.91004 L293.591422,42.91004 Z M311.955422,41.82394 L311.955422,41.76874 C311.955422,37.88454 309.820422,35.36264 306.471422,35.36264 C302.994422,35.36264 300.767422,37.93974 300.767422,41.76874 L300.767422,41.82394 L311.955422,41.82394 Z" id="Shape" fill="#4E4072"></path>
            <path d="M324.668422,55.31734 L324.668422,24.15184 C324.668422,21.57464 326.011422,20.24924 328.200422,20.24924 C330.372422,20.24924 331.733422,21.59314 331.733422,24.15184 L331.733422,55.31734 C331.733422,57.89454 330.372422,59.20154 328.200422,59.20154 C326.011422,59.20154 324.668422,57.89454 324.668422,55.31734 Z" id="Path" fill="#4E4072"></path>
            <path d="M62.927422,63.74844 C61.437022,63.74844 60.222622,62.53344 60.222622,61.04234 L60.222622,2.74286 C60.222622,1.25177 61.437022,0.036816 62.927422,0.036816 C64.417822,0.036816 65.632222,1.25177 65.632222,2.74286 L65.632222,61.04234 C65.632222,62.53344 64.417822,63.74844 62.927422,63.74844 Z" id="Path" fill="#5F40E2"></path>
            <path d="M2.704802,74.95914 C1.214402,74.95914 1.37667655e-14,73.74424 1.37667655e-14,72.25314 L1.37667655e-14,2.74286 C1.37667655e-14,1.25177 1.214402,0.036816 2.704802,0.036816 C4.195202,0.036816 5.409602,1.25177 5.409602,2.74286 L5.409602,72.25314 C5.428002,73.74424 4.213602,74.95914 2.704802,74.95914 Z" id="Path" fill="#5F40E2"></path>
            <path d="M33.046422,30.77894 C31.740022,30.77894 30.580822,29.82164 30.378422,28.49624 C28.280822,15.35264 16.394422,5.4489 2.704802,5.4489 C1.214402,5.4489 1.42108547e-14,4.23394 1.42108547e-14,2.74286 C1.42108547e-14,1.25177 1.214402,0.036816 2.704802,0.036816 C19.025622,0.036816 33.212022,11.91024 35.732822,27.64944 C35.972022,29.12214 34.960022,30.52114 33.488022,30.76054 C33.340822,30.76054 33.193622,30.77894 33.046422,30.77894 Z" id="Path" fill="#5F40E2"></path>
            <path d="M33.066322,30.77894 C32.900722,30.77894 32.735122,30.76054 32.569522,30.72364 C31.097522,30.44754 30.122322,29.03014 30.398322,27.55744 C33.360722,11.59734 47.050322,3.55271368e-15 62.929522,3.55271368e-15 C64.419922,3.55271368e-15 65.634322,1.21496 65.634322,2.70604 C65.634322,4.19712 64.419922,5.41208 62.929522,5.41208 C49.644722,5.41208 38.218322,15.13174 35.734322,28.53304 C35.476722,29.85844 34.335922,30.77894 33.066322,30.77894 Z" id="Path" fill="#5F40E2"></path>
            <path d="M62.928022,86.15154 L14.517622,86.15154 C6.513602,86.15154 1.42108547e-14,79.91104 1.42108547e-14,72.23474 C1.42108547e-14,70.96454 0.184001,69.73114 0.515201,68.53464 C1.196002,66.19674 2.484002,64.06134 4.287202,62.34944 C7.028802,59.75384 10.653622,58.31794 14.499222,58.31794 L62.909622,58.31794 C64.400022,58.31794 65.614422,59.53294 65.614422,61.02394 C65.614422,62.51504 64.400022,63.73004 62.909622,63.73004 L14.517622,63.73004 C12.070422,63.73004 9.752002,64.63204 8.040802,66.27034 C6.936802,67.31964 6.145602,68.60824 5.740802,70.02574 C5.538402,70.74364 5.428002,71.47994 5.428002,72.23474 C5.428002,76.91044 9.512802,80.72104 14.517622,80.72104 L62.928022,80.72104 C64.418422,80.72104 65.632822,81.93594 65.632822,83.42704 C65.632822,84.91814 64.418422,86.15154 62.928022,86.15154 Z" id="Path" fill="#5F40E2"></path>
            <path d="M46.865322,42.11854 C49.426122,42.11854 51.502122,40.04154 51.502122,37.47954 C51.502122,34.91754 49.426122,32.84064 46.865322,32.84064 C44.304522,32.84064 42.228522,34.91754 42.228522,37.47954 C42.228522,40.04154 44.304522,42.11854 46.865322,42.11854 Z" id="Path" fill="#5F40E2"></path>
            <path d="M18.785222,42.11854 C21.346022,42.11854 23.422022,40.04154 23.422022,37.47954 C23.422022,34.91754 21.346022,32.84064 18.785222,32.84064 C16.224422,32.84064 14.148422,34.91754 14.148422,37.47954 C14.148422,40.04154 16.224422,42.11854 18.785222,42.11854 Z" id="Path" fill="#5F40E2"></path>
            <path d="M62.927922,73.79944 L13.468722,73.79944 C12.309522,73.79944 11.371122,72.86064 11.371122,71.70084 C11.371122,70.54114 12.309522,69.60234 13.468722,69.60234 L62.927922,69.60234 C64.087122,69.60234 65.025522,70.54114 65.025522,71.70084 C65.025522,72.86064 64.087122,73.79944 62.927922,73.79944 Z" id="Path" fill="#5F40E2"></path>
        </g>
    </g>
</svg>